<?xml version="1.0" encoding="utf-8"?>
<!-- Generator: Adobe Illustrator 25.4.1, SVG Export Plug-In . SVG Version: 6.00 Build 0)  -->
<svg version="1.1" id="Layer_1" xmlns="http://www.w3.org/2000/svg" xmlns:xlink="http://www.w3.org/1999/xlink" x="0px" y="0px"
	 viewBox="0 0 1600.8 1315.9" style="enable-background:new 0 0 1600.8 1315.9;" xml:space="preserve">
<style type="text/css">
	.st0{fill:#DCCFB8;}
	.st1{fill:#F39200;}
	.st2{fill:#366AB2;}
	.st3{fill:#45B492;}
	.st4{fill:#EC9BC3;}
</style>
<path class="st0" d="M-649.7,427.2c-7.1,9.4-5.9,30.1-5.2,41.1c1.4,24.3-0.4,51.6,8.2,66.8c13.5,24,23,40.7,45.8,46
	c25.8,6,48.8-5.5,70.5-27.1c13.4-13.4,17.4-19.3,19.7-41c0.8-7.9-3.7-18.6-15.3-27.3s-16.8-16.8-16.8-16.8s19.5-1.7,31.7-15.7
	c15.2-17.4,22.1-56.2,22.2-68.8c0.2-30.1-1.2-37-29.6-37c-31.4,0-63.3,20.4-87.1,38.3C-622.3,398.4-631.1,402.8-649.7,427.2z"/>
<path class="st0" d="M-673.7,432.8c7.1,9.4,5.9,30.1,5.2,41.1c-1.4,24.3,0.4,51.6-8.2,66.9c-13.5,24-23,40.7-45.8,46
	c-25.8,6-48.8-5.5-70.5-27.1c-13.4-13.4-17.5-19.3-19.7-41c-0.8-7.9,3.7-18.6,15.3-27.3s16.7-16.9,16.7-16.9s-19.5-1.7-31.7-15.7
	c-15.2-17.4-22.1-56.2-22.2-68.8c-0.2-30.1,1.2-37,29.6-37c31.4,0,63.3,20.4,87.1,38.3C-701.1,403.9-692.3,408.4-673.7,432.8z"/>
<path class="st0" d="M-670.1,486.4c0,26.4-0.7,49.6,2.1,61.1c1.2,5,4.9,9.9,6.4,9.9s5.2-3.9,6.4-9c2.8-11.5,2.8-35.6,2.8-62
	c0-25.7,1.7-52.9-1-64.8c-1.3-5.7-6.2-4.6-7.8-4.6s-7.7-1-9,4.6C-672.9,433.4-670.1,460.6-670.1,486.4z"/>
<path class="st0" d="M-655.2,423.9l-3.2-2.2c-0.5-0.3-0.6-1-0.3-1.5l55.4-79.7c0.3-0.5,1-0.6,1.5-0.3l3.2,2.2c0.5,0.3,0.6,1,0.3,1.5
	l-55.4,79.7C-654,424.1-654.7,424.2-655.2,423.9z"/>
<path class="st0" d="M-724.7,341.7l3.2-2.2c0.5-0.3,1.2-0.2,1.5,0.3l55.4,79.8c0.3,0.5,0.2,1.2-0.3,1.5l-3.2,2.2
	c-0.5,0.3-1.2,0.2-1.5-0.3l-55.4-79.8C-725.3,342.7-725.2,342.1-724.7,341.7z"/>
<path class="st0" d="M-724.7,341.7l3.2-2.2c0.5-0.3,1.2-0.2,1.5,0.3l55.4,79.8c0.3,0.5,0.2,1.2-0.3,1.5l-3.2,2.2
	c-0.5,0.3-1.2,0.2-1.5-0.3l-55.4-79.8C-725.3,342.7-725.2,342.1-724.7,341.7z"/>
<path class="st1" d="M-654.2,416.9v164.6c0,13.6-3.3,24-9.8,31.1s-16.1,10.7-28.8,10.7c-4.9,0-9.7-0.9-14.3-2.6l0.3-13.3
	c4,1.2,8.1,1.8,12.3,1.8c16.1,0,24.2-9.3,24.2-27.9V416.9H-654.2z M-662.2,363.4c5.8-0.4,10.9,4,11.3,9.8c0,0.4,0,0.7,0,1.1
	c0.1,2.9-1,5.6-3,7.7c-2,2.1-4.8,3.1-8.3,3.1c-3,0.2-6-1-8.1-3.1c-2-2.1-3-4.8-2.9-7.7c-0.1-2.9,1-5.7,2.9-7.8
	C-668.2,364.4-665.3,363.3-662.2,363.4L-662.2,363.4z"/>
<path class="st2" d="M-645.6,485.5c0-14.1,2.7-26.9,8.2-38.2c10.3-22.3,32.8-36.3,57.3-35.9c19.6,0,35.4,6.9,47.6,20.6
	c12.1,13.7,18.2,31.9,18.2,54.6v3.4c0,14.2-2.7,27-8.2,38.4c-5.5,11.4-13.2,20.1-23.2,26.3c-10,6.2-21.4,9.2-34.1,9.2
	c-19.5,0-35.3-6.9-47.5-20.6c-12.2-13.7-18.3-31.9-18.3-54.6V485.5z M-629.3,490c0,17.6,4.6,32,13.7,43.3
	c9.1,11.3,21,16.9,35.8,16.9c14.7,0,26.6-5.6,35.7-16.9s13.7-26.2,13.7-44.6v-3.1c0.1-10.6-2-21.1-6.2-30.9
	c-4.2-9.3-10-16.6-17.5-21.7c-7.6-5.2-16.6-7.8-25.8-7.7c-14.5,0-26.3,5.7-35.5,17s-13.7,26.2-13.7,44.7L-629.3,490z"/>
<path class="st3" d="M-698.1,560.7c-1.6-4.6-2.7-11.5-3.1-20.5c-5.7,7.4-13.2,13.4-21.8,17.2c-8.8,4-18.4,6.1-28.1,6
	c-14.1,0-25.6-3.9-34.3-11.8c-8.8-7.9-13.1-17.8-13.1-29.9c0-14.3,6-25.7,17.9-34c11.9-8.3,28.5-12.5,49.8-12.5h29.5v-16.6
	c0-10.5-3.2-18.8-9.7-24.8c-6.5-6-15.9-9-28.3-9c-11.3,0-20.7,2.9-28.1,8.7c-7.4,5.8-11.1,12.8-11.1,20.9l-16.3-0.1
	c0-11.7,5.4-21.8,16.3-30.4s24.2-12.9,40.1-12.9c16.4,0,29.3,4.1,38.8,12.3c9.5,8.2,14.3,19.6,14.6,34.3v69.6
	c0,14.2,1.5,24.9,4.5,31.9v1.6H-698.1z M-749.2,549c10.3,0.2,20.4-2.6,29.2-7.9c8.3-4.9,14.8-12.3,18.7-21.1v-32.4h-29.1
	c-16.2,0.2-28.9,3.1-38.1,8.9c-9.2,5.8-13.7,13.7-13.7,23.7c-0.2,7.9,3.2,15.4,9.2,20.5C-766.9,546.3-759,549-749.2,549z"/>
<path class="st4" d="M-651,374.3c0.1,2.9-1,5.7-3,7.8c-2.2,2-5.1,3.1-8.2,3.1c-2.8,0.1-5.4-0.8-7.6-2.5c-2.3-2.1-3.6-5.2-3.5-8.4
	c0-2.7,0.9-5.3,2.7-7.4c4.4-4.3,11.4-4.7,16.2-0.7C-652.2,368.3-651,371.3-651,374.3z"/>
<path class="st0" d="M-1737.3,828.1c-2.6,3.4-2.1,10.8-1.9,14.8c0.5,8.7-0.1,18.5,2.9,24c4.8,8.6,8.3,14.6,16.5,16.5
	c9.3,2.2,17.5-2,25.3-9.7c4.8-4.8,6.3-6.9,7.1-14.7c0.3-2.8-1.3-6.7-5.5-9.8c-2.3-1.7-4.3-3.7-6-6c0,0,7-0.6,11.4-5.6
	c5.5-6.3,7.9-20.2,8-24.7c0.1-10.8-0.4-13.3-10.6-13.3c-11.3,0-22.7,7.3-31.3,13.8C-1727.5,817.8-1730.6,819.4-1737.3,828.1z"/>
<path class="st0" d="M-1745.9,830.1c2.5,3.3,2.1,10.8,1.9,14.8c-0.5,8.7,0.1,18.5-2.9,24c-4.8,8.6-8.3,14.6-16.4,16.5
	c-9.3,2.2-17.5-2-25.3-9.7c-4.8-4.8-6.3-6.9-7.1-14.7c-0.3-2.8,1.3-6.7,5.5-9.8c2.3-1.7,4.3-3.7,6-6c0,0-7-0.6-11.4-5.6
	c-5.5-6.3-7.9-20.2-8-24.7c-0.1-10.8,0.4-13.3,10.6-13.3c11.3,0,22.7,7.3,31.3,13.8C-1755.8,819.8-1752.6,821.4-1745.9,830.1z"/>
<path class="st0" d="M-1744.6,849.4c0,9.5-0.2,17.8,0.8,22c0.4,1.8,1.8,3.5,2.3,3.5c0.5,0,1.9-1.4,2.3-3.2c1-4.1,1-12.8,1-22.3
	c0-9.2,0.6-19-0.4-23.3c-0.5-2-2.2-1.7-2.8-1.7c-0.6,0-2.8-0.3-3.2,1.7C-1745.6,830.3-1744.6,840.1-1744.6,849.4z"/>
<path class="st0" d="M-1740.3,826.3L-1740.3,826.3c-0.5-0.3-0.6-1-0.3-1.5l19.1-27.5c0.3-0.5,1-0.6,1.5-0.3l0,0
	c0.5,0.3,0.6,1,0.3,1.5l-19.1,27.5C-1739.1,826.6-1739.8,826.7-1740.3,826.3z"/>
<path class="st0" d="M-1763.7,797L-1763.7,797c0.5-0.3,1.2-0.2,1.5,0.3l19.1,27.5c0.3,0.5,0.2,1.2-0.3,1.5l0,0
	c-0.5,0.3-1.2,0.2-1.5-0.3l-19.1-27.5C-1764.3,798-1764.2,797.4-1763.7,797z"/>
<path class="st0" d="M-1763.7,797L-1763.7,797c0.5-0.3,1.2-0.2,1.5,0.3l19.1,27.5c0.3,0.5,0.2,1.2-0.3,1.5l0,0
	c-0.5,0.3-1.2,0.2-1.5-0.3l-19.1-27.5C-1764.3,798-1764.2,797.4-1763.7,797z"/>
<path class="st4" d="M-1738.9,824.4v59.1c0,4.9-1.2,8.6-3.5,11.2c-2.3,2.6-5.8,3.9-10.4,3.9c-1.8,0-3.5-0.3-5.1-0.9l0.1-4.8
	c1.4,0.4,2.9,0.6,4.4,0.6c5.8,0,8.7-3.3,8.7-10v-59.1H-1738.9z M-1741.8,805.2c2.1-0.1,3.9,1.4,4.1,3.5c0,0.1,0,0.3,0,0.4
	c0,1-0.4,2-1.1,2.8c-0.8,0.8-1.9,1.2-3,1.1c-1.1,0.1-2.1-0.4-2.9-1.1c-0.7-0.8-1-1.8-1-2.8c0-1,0.3-2,1-2.8
	C-1744,805.6-1742.9,805.2-1741.8,805.2L-1741.8,805.2z"/>
<path class="st3" d="M-1735.8,849.1c-0.1-4.7,0.9-9.4,2.9-13.7c3.7-8,11.8-13.1,20.6-12.9c7,0,12.7,2.5,17.1,7.4s6.5,11.5,6.5,19.6
	v1.2c0.1,4.8-1,9.5-3,13.8c-1.8,3.9-4.7,7.2-8.3,9.5c-3.7,2.2-7.9,3.4-12.3,3.3c-7,0-12.7-2.5-17.1-7.4s-6.6-11.5-6.6-19.6
	L-1735.8,849.1z M-1729.9,850.7c0,6.3,1.6,11.5,4.9,15.5c5.8,7.1,16.3,8.1,23.4,2.3c0.8-0.7,1.6-1.5,2.3-2.3c3.3-4,4.9-9.4,4.9-16
	v-1.1c0-3.8-0.7-7.6-2.2-11.1c-1.3-3.1-3.5-5.8-6.3-7.8c-2.7-1.9-6-2.8-9.3-2.8c-5-0.1-9.7,2.1-12.7,6.1c-3.3,4.1-4.9,9.4-4.9,16
	L-1729.9,850.7z"/>
<path class="st2" d="M-1754.7,876.1c-0.7-2.4-1.1-4.9-1.1-7.4c-2.1,2.7-4.7,4.8-7.8,6.2c-3.2,1.4-6.6,2.2-10.1,2.2
	c-5.1,0-9.2-1.4-12.3-4.2c-3.1-2.7-4.8-6.6-4.7-10.7c-0.1-4.9,2.3-9.5,6.4-12.2c4.3-3,10.2-4.5,17.9-4.5h10.6v-6
	c0.2-3.3-1.1-6.6-3.5-8.9c-2.3-2.2-5.7-3.2-10.2-3.2c-3.6-0.1-7.2,1-10.1,3.1c-2.5,1.7-4,4.5-4,7.5h-5.9c0-4.2,2-7.8,5.9-10.9
	c4.1-3.2,9.2-4.8,14.4-4.6c5.9,0,10.5,1.5,13.9,4.4s5.2,7,5.3,12.3v25c0,5.1,0.5,8.9,1.6,11.5v0.6H-1754.7z M-1773,871.9
	c3.7,0.1,7.3-0.9,10.5-2.8c3-1.8,5.3-4.4,6.7-7.6v-11.6h-10.5c-5.8,0.1-10.4,1.1-13.7,3.2c-3.1,1.7-5,5-4.9,8.5
	c-0.1,2.8,1.2,5.5,3.3,7.4C-1779.2,871-1776.1,872-1773,871.9z"/>
<path class="st0" d="M-1920.8,828.1c-2.6,3.4-2.1,10.8-1.9,14.8c0.5,8.7-0.1,18.5,2.9,24c4.8,8.6,8.3,14.6,16.5,16.5
	c9.3,2.2,17.5-2,25.3-9.7c4.8-4.8,6.3-6.9,7.1-14.7c0.3-2.8-1.3-6.7-5.5-9.8c-2.3-1.7-4.3-3.7-6-6c0,0,7-0.6,11.4-5.6
	c5.5-6.3,7.9-20.2,8-24.7c0.1-10.8-0.5-13.3-10.6-13.3c-11.3,0-22.7,7.3-31.3,13.8C-1911,817.8-1914.2,819.4-1920.8,828.1z"/>
<path class="st0" d="M-1929.5,830.1c2.6,3.3,2.1,10.8,1.9,14.8c-0.5,8.7,0.1,18.5-2.9,24c-4.8,8.6-8.3,14.6-16.5,16.5
	c-9.3,2.2-17.5-2-25.3-9.7c-4.8-4.8-6.3-6.9-7.1-14.7c-0.3-2.8,1.3-6.7,5.5-9.8c2.3-1.7,4.3-3.7,6-6c0,0-7-0.6-11.4-5.6
	c-5.5-6.3-7.9-20.2-8-24.7c-0.1-10.8,0.5-13.3,10.6-13.3c11.3,0,22.7,7.3,31.3,13.8C-1939.3,819.8-1936.1,821.4-1929.5,830.1z"/>
<path class="st0" d="M-1928.2,849.4c0,9.5-0.2,17.8,0.8,22c0.4,1.8,1.8,3.5,2.3,3.5c0.5,0,1.9-1.4,2.3-3.2c1-4.1,1-12.8,1-22.3
	c0-9.2,0.6-19-0.4-23.3c-0.5-2-2.2-1.7-2.8-1.7c-0.6,0-2.8-0.3-3.2,1.7C-1929.1,830.3-1928.2,840.1-1928.2,849.4z"/>
<path class="st0" d="M-1923.8,826.3L-1923.8,826.3c-0.5-0.3-0.6-1-0.3-1.5l19.1-27.5c0.3-0.5,1-0.6,1.5-0.3l0,0
	c0.5,0.3,0.6,1,0.3,1.5l-19.1,27.5C-1922.7,826.6-1923.3,826.7-1923.8,826.3z"/>
<path class="st0" d="M-1947.2,797L-1947.2,797c0.5-0.3,1.2-0.2,1.5,0.3l19.1,27.5c0.3,0.5,0.2,1.2-0.3,1.5v0
	c-0.5,0.3-1.2,0.2-1.5-0.3l-19.1-27.5C-1947.8,798-1947.7,797.4-1947.2,797z"/>
<path class="st0" d="M-1947.2,797L-1947.2,797c0.5-0.3,1.2-0.2,1.5,0.3l19.1,27.5c0.3,0.5,0.2,1.2-0.3,1.5v0
	c-0.5,0.3-1.2,0.2-1.5-0.3l-19.1-27.5C-1947.8,798-1947.7,797.4-1947.2,797z"/>
<path class="st4" d="M-1922.5,824.4v59.1c0,4.9-1.2,8.6-3.5,11.2s-5.8,3.9-10.3,3.9c-1.8,0-3.5-0.3-5.1-0.9l0.1-4.8
	c1.4,0.4,2.9,0.6,4.4,0.6c5.8,0,8.7-3.3,8.7-10v-59.1H-1922.5z M-1925.3,805.2c1.1-0.1,2.2,0.3,3,1.1c0.7,0.7,1.1,1.8,1.1,2.8
	c0,1-0.4,2-1.1,2.8c-0.8,0.8-1.9,1.2-3,1.1c-1.1,0.1-2.1-0.3-2.9-1.1c-0.7-0.7-1.1-1.7-1-2.8c0-1,0.4-2,1-2.8
	C-1927.5,805.6-1926.4,805.2-1925.3,805.2L-1925.3,805.2z"/>
<path class="st3" d="M-1919.3,849.1c-0.1-4.7,1-9.4,3-13.7c3.7-8,11.8-13.1,20.6-12.9c7,0,12.7,2.5,17.1,7.4s6.5,11.5,6.5,19.6v1.2
	c0.1,4.8-1,9.5-3,13.8c-1.8,3.9-4.7,7.2-8.3,9.5c-3.7,2.2-7.9,3.4-12.3,3.3c-7,0-12.7-2.5-17.1-7.4s-6.6-11.5-6.6-19.6
	L-1919.3,849.1z M-1913.5,850.7c0,6.3,1.6,11.5,4.9,15.5c5.8,7.1,16.3,8.1,23.4,2.3c0.8-0.7,1.6-1.5,2.3-2.3c3.3-4,4.9-9.4,4.9-16
	v-1.1c0-3.8-0.7-7.6-2.2-11.1c-1.3-3.1-3.5-5.8-6.3-7.8c-2.7-1.9-6-2.8-9.3-2.8c-5-0.1-9.7,2.2-12.8,6.1c-3.3,4.1-4.9,9.4-4.9,16
	V850.7z"/>
<path class="st2" d="M-1938.2,876.1c-0.7-2.4-1.1-4.9-1.1-7.4c-2.1,2.7-4.8,4.8-7.8,6.2c-3.2,1.4-6.6,2.2-10.1,2.2
	c-5.1,0-9.2-1.4-12.3-4.2c-3.1-2.7-4.8-6.6-4.7-10.7c-0.1-4.9,2.3-9.5,6.4-12.2c4.3-3,10.2-4.5,17.9-4.5h10.6v-6
	c0.2-3.3-1.1-6.6-3.5-8.9c-2.3-2.2-5.7-3.2-10.2-3.2c-3.6-0.1-7.2,1-10.1,3.1c-2.5,1.7-4,4.5-4,7.5h-5.8c0-4.2,1.9-7.8,5.8-10.9
	c4.1-3.2,9.2-4.8,14.4-4.6c5.9,0,10.5,1.5,13.9,4.4c3.4,2.9,5.2,7.1,5.2,12.3v25c0,5.1,0.5,8.9,1.6,11.5v0.6L-1938.2,876.1z
	 M-1956.6,871.9c3.7,0.1,7.3-0.9,10.5-2.8c3-1.8,5.3-4.4,6.7-7.6v-11.6h-10.4c-5.8,0.1-10.4,1.1-13.7,3.2c-3.1,1.7-5,5-4.9,8.5
	c-0.1,2.8,1.1,5.5,3.3,7.4C-1962.7,871-1959.7,872-1956.6,871.9L-1956.6,871.9z"/>
<path class="st0" d="M-1733.9,689.3c-2.5,3.4-2.1,10.8-1.9,14.8c0.5,8.7-0.1,18.5,2.9,24c4.8,8.6,8.3,14.6,16.5,16.5
	c9.3,2.2,17.5-2,25.3-9.7c4.8-4.8,6.3-6.9,7.1-14.7c0.3-2.8-1.3-6.7-5.5-9.8c-2.3-1.7-4.3-3.7-6-6c0,0,7-0.6,11.4-5.6
	c5.5-6.3,7.9-20.2,8-24.7c0.1-10.8-0.4-13.3-10.6-13.3c-11.3,0-22.7,7.3-31.3,13.8C-1724,678.9-1727.2,680.5-1733.9,689.3z"/>
<path class="st0" d="M-1742.5,691.3c2.6,3.3,2.1,10.8,1.9,14.8c-0.5,8.7,0.1,18.5-2.9,24c-4.8,8.6-8.3,14.6-16.5,16.5
	c-9.3,2.2-17.5-2-25.3-9.7c-4.8-4.8-6.3-6.9-7.1-14.7c-0.3-2.8,1.3-6.7,5.5-9.8c2.3-1.7,4.3-3.7,6-6c0,0-7-0.6-11.4-5.6
	c-5.5-6.3-7.9-20.2-8-24.7c-0.1-10.8,0.4-13.3,10.6-13.3c11.3,0,22.7,7.3,31.3,13.8C-1752.4,680.9-1749.2,682.5-1742.5,691.3z"/>
<path class="st0" d="M-1741.2,710.5c0,9.5-0.2,17.8,0.8,22c0.4,1.8,1.8,3.5,2.3,3.5c0.5,0,1.9-1.4,2.3-3.2c1-4.1,1-12.8,1-22.3
	c0-9.2,0.6-19-0.4-23.3c-0.5-2-2.2-1.7-2.8-1.7c-0.6,0-2.8-0.3-3.2,1.7C-1742.2,691.5-1741.2,701.3-1741.2,710.5z"/>
<path class="st0" d="M-1736.4,688.3L-1736.4,688.3c-0.5-0.3-0.6-1-0.3-1.5l19.1-27.5c0.3-0.5,1-0.6,1.5-0.3h0c0.5,0.3,0.6,1,0.3,1.5
	l-19.1,27.5C-1735.3,688.5-1735.9,688.7-1736.4,688.3z"/>
<path class="st0" d="M-1760.3,658.1L-1760.3,658.1c0.5-0.3,1.2-0.2,1.5,0.3l19.1,27.5c0.3,0.5,0.2,1.2-0.3,1.5l0,0
	c-0.5,0.3-1.2,0.2-1.5-0.3l-19.1-27.5C-1760.9,659.2-1760.8,658.5-1760.3,658.1z"/>
<path class="st0" d="M-1760.3,658.1L-1760.3,658.1c0.5-0.3,1.2-0.2,1.5,0.3l19.1,27.5c0.3,0.5,0.2,1.2-0.3,1.5l0,0
	c-0.5,0.3-1.2,0.2-1.5-0.3l-19.1-27.5C-1760.9,659.2-1760.8,658.5-1760.3,658.1z"/>
<path class="st4" d="M-1735.5,685.5v59.1c0,4.9-1.2,8.6-3.5,11.2c-2.3,2.6-5.8,3.8-10.4,3.8c-1.8,0-3.5-0.3-5.1-0.9l0.1-4.8
	c1.4,0.4,2.9,0.6,4.4,0.6c5.8,0,8.7-3.3,8.7-10v-59.1H-1735.5z M-1738.4,666.3c1.1-0.1,2.2,0.3,3,1.1c0.7,0.7,1.1,1.8,1.1,2.8
	c0,1-0.4,2-1.1,2.8c-0.8,0.8-1.9,1.2-3,1.1c-1.1,0.1-2.1-0.3-2.9-1.1c-0.7-0.7-1.1-1.7-1.1-2.8c0-1,0.4-2,1.1-2.8
	C-1740.5,666.7-1739.5,666.3-1738.4,666.3z"/>
<path class="st2" d="M-1732.4,710.2c-0.1-4.7,1-9.4,3-13.7c3.7-8,11.8-13.1,20.6-12.9c7,0,12.7,2.5,17.1,7.4
	c4.4,4.9,6.5,11.5,6.5,19.6v1.2c0.1,4.8-1,9.5-3,13.8c-1.8,3.9-4.7,7.2-8.3,9.5c-3.7,2.2-7.9,3.4-12.3,3.3c-7,0-12.7-2.5-17.1-7.4
	c-4.4-4.9-6.6-11.5-6.6-19.6L-1732.4,710.2z M-1726.5,711.8c0,6.3,1.6,11.5,4.9,15.5c5.8,7.1,16.3,8.1,23.4,2.3
	c0.8-0.7,1.6-1.5,2.3-2.3c3.3-4,4.9-9.4,4.9-16v-1.1c0-3.8-0.7-7.6-2.2-11.1c-1.3-3.1-3.5-5.8-6.3-7.8c-2.7-1.9-6-2.8-9.3-2.8
	c-5-0.1-9.7,2.1-12.8,6.1c-3.3,4.1-4.9,9.4-4.9,16L-1726.5,711.8z"/>
<path class="st3" d="M-1751.3,737.2c-0.7-2.4-1.1-4.9-1.1-7.4c-2.1,2.7-4.8,4.8-7.8,6.2c-3.2,1.4-6.6,2.2-10.1,2.2
	c-5.1,0-9.2-1.4-12.3-4.2c-3.1-2.7-4.8-6.6-4.7-10.7c-0.1-4.9,2.3-9.5,6.4-12.2c4.3-3,10.2-4.5,17.9-4.5h10.6v-6
	c0.2-3.3-1.1-6.6-3.5-8.9c-2.3-2.2-5.7-3.2-10.2-3.2c-3.6-0.1-7.2,1-10.1,3.1c-2.5,1.7-4,4.5-4,7.5h-5.9c0-4.2,2-7.8,5.9-10.9
	c4.1-3.2,9.2-4.8,14.4-4.6c5.9,0,10.5,1.5,13.9,4.4c3.4,2.9,5.2,7.1,5.2,12.3v25c0,5.1,0.5,8.9,1.6,11.5v0.6L-1751.3,737.2z
	 M-1769.6,733c3.7,0.1,7.3-0.9,10.5-2.8c3-1.8,5.3-4.4,6.7-7.6V711h-10.5c-5.8,0.1-10.4,1.1-13.7,3.2c-3.1,1.7-5,5-4.9,8.5
	c-0.1,2.8,1.2,5.5,3.3,7.4C-1775.8,732.1-1772.7,733.1-1769.6,733z"/>
<path class="st0" d="M-1879.4,512.6c-2.6,3.4-2.1,10.8-1.9,14.8c0.5,8.7-0.1,18.5,2.9,24c4.8,8.6,8.3,14.6,16.5,16.5
	c9.3,2.2,17.5-2,25.3-9.7c4.8-4.8,6.3-6.9,7.1-14.7c0.3-2.8-1.3-6.7-5.5-9.8c-2.3-1.7-4.3-3.7-6-6c0,0,7-0.6,11.4-5.6
	c5.5-6.2,8-20.2,8-24.7c0.1-10.8-0.5-13.3-10.6-13.3c-11.3,0-22.7,7.4-31.3,13.8C-1869.6,502.2-1872.8,503.8-1879.4,512.6z"/>
<path class="st0" d="M-1888.1,514.6c2.6,3.4,2.1,10.8,1.9,14.8c-0.5,8.7,0.1,18.5-2.9,24c-4.8,8.6-8.3,14.6-16.5,16.5
	c-9.3,2.2-17.5-2-25.3-9.7c-4.8-4.8-6.3-6.9-7.1-14.7c-0.3-2.8,1.3-6.7,5.5-9.8c2.3-1.7,4.3-3.7,6-6c0,0-7-0.6-11.4-5.6
	c-5.5-6.2-7.9-20.2-8-24.7c-0.1-10.8,0.5-13.3,10.6-13.3c11.3,0,22.7,7.3,31.3,13.8C-1897.9,504.2-1894.8,505.8-1888.1,514.6z"/>
<path class="st0" d="M-1886.8,533.9c0,9.5-0.2,17.8,0.8,22c0.4,1.8,1.8,3.5,2.3,3.5c0.5,0,1.9-1.4,2.3-3.2c1-4.1,1-12.8,1-22.3
	c0-9.2,0.6-19-0.4-23.3c-0.5-2-2.2-1.6-2.8-1.6c-0.6,0-2.8-0.4-3.2,1.6C-1887.8,514.8-1886.8,524.6-1886.8,533.9z"/>
<path class="st0" d="M-1882.5,510.8L-1882.5,510.8c-0.5-0.3-0.6-1-0.3-1.5l19.1-27.5c0.3-0.5,1-0.6,1.5-0.3v0c0.5,0.3,0.6,1,0.3,1.5
	l-19.1,27.5C-1881.3,511-1882,511.2-1882.5,510.8z"/>
<path class="st0" d="M-1905.8,481.5L-1905.8,481.5c0.5-0.3,1.2-0.2,1.5,0.3l19.1,27.5c0.3,0.5,0.2,1.2-0.3,1.5l0,0
	c-0.5,0.3-1.2,0.2-1.5-0.3l-19.1-27.5C-1906.4,482.5-1906.3,481.8-1905.8,481.5z"/>
<path class="st0" d="M-1905.8,481.5L-1905.8,481.5c0.5-0.3,1.2-0.2,1.5,0.3l19.1,27.5c0.3,0.5,0.2,1.2-0.3,1.5l0,0
	c-0.5,0.3-1.2,0.2-1.5-0.3l-19.1-27.5C-1906.4,482.5-1906.3,481.8-1905.8,481.5z"/>
<path class="st1" d="M-1881.1,508.9V568c0,4.9-1.2,8.6-3.5,11.2c-2.3,2.6-5.8,3.9-10.3,3.9c-1.8,0-3.5-0.3-5.1-0.9l0.1-4.8
	c1.4,0.4,2.9,0.6,4.4,0.6c5.8,0,8.7-3.3,8.7-10v-59.1H-1881.1z M-1884,489.7c2.1-0.1,3.9,1.4,4.1,3.5c0,0.1,0,0.3,0,0.4
	c0,1-0.4,2-1.1,2.8c-0.8,0.8-1.9,1.2-3,1.1c-1.1,0.1-2.1-0.3-2.9-1.1c-0.7-0.7-1.1-1.7-1.1-2.8c0-1,0.4-2,1.1-2.8
	C-1886.1,490-1885.1,489.6-1884,489.7z"/>
<path class="st2" d="M-1878,533.6c-0.1-4.7,1-9.4,3-13.7c3.7-8,11.8-13.1,20.6-12.9c7,0,12.7,2.5,17.1,7.4
	c4.4,4.9,6.5,11.5,6.5,19.6v1.2c0.1,4.8-1,9.5-3,13.8c-1.8,3.9-4.7,7.2-8.3,9.5c-3.7,2.2-7.9,3.4-12.3,3.3c-7,0-12.7-2.5-17.1-7.4
	s-6.6-11.5-6.6-19.7V533.6z M-1872.1,535.2c0,6.3,1.6,11.5,4.9,15.6c5.8,7.1,16.3,8.1,23.4,2.3c0.8-0.7,1.6-1.5,2.3-2.3
	c3.3-4.1,4.9-9.4,4.9-16v-1.1c0-3.8-0.7-7.6-2.2-11.1c-1.3-3.1-3.5-5.8-6.3-7.8c-2.7-1.9-6-2.8-9.3-2.8c-5-0.1-9.7,2.2-12.7,6.1
	c-3.3,4.1-4.9,9.4-4.9,16V535.2z"/>
<path class="st3" d="M-1896.8,560.6c-0.7-2.4-1.1-4.9-1.2-7.4c-2.1,2.7-4.7,4.8-7.8,6.2c-3.2,1.4-6.6,2.2-10.1,2.2
	c-5.1,0-9.2-1.4-12.3-4.2c-3.1-2.7-4.8-6.6-4.7-10.7c-0.1-4.9,2.3-9.5,6.4-12.2c4.3-3,10.2-4.5,17.9-4.5h10.6v-6
	c0.2-3.3-1.1-6.6-3.5-8.9c-2.3-2.2-5.7-3.2-10.2-3.2c-3.6-0.1-7.2,1-10.1,3.1c-2.5,1.7-4,4.5-4,7.5l-5.9,0c0-4.2,2-7.8,5.9-10.9
	c4.1-3.2,9.2-4.8,14.4-4.6c5.9,0,10.5,1.5,13.9,4.4c3.4,2.9,5.2,7.1,5.2,12.3v25c0,5.1,0.5,8.9,1.6,11.5v0.6H-1896.8z
	 M-1915.2,556.4c3.7,0.1,7.3-0.9,10.5-2.8c3-1.8,5.3-4.4,6.7-7.6v-11.6h-10.4c-5.8,0.1-10.4,1.1-13.7,3.2c-3.1,1.7-5,5-4.9,8.5
	c-0.1,2.8,1.2,5.5,3.3,7.4C-1921.4,555.5-1918.3,556.5-1915.2,556.4L-1915.2,556.4z"/>
<path class="st0" d="M-2095.2,687.3c-2.6,3.4-2.1,10.8-1.9,14.8c0.5,8.7-0.1,18.5,2.9,24c4.8,8.6,8.3,14.6,16.5,16.5
	c9.3,2.2,17.5-2,25.3-9.7c4.8-4.8,6.3-6.9,7.1-14.7c0.3-2.8-1.3-6.7-5.5-9.8c-2.3-1.7-4.3-3.7-6-6c0,0,7-0.6,11.4-5.6
	c5.5-6.3,7.9-20.2,8-24.7c0.1-10.8-0.5-13.3-10.6-13.3c-11.3,0-22.7,7.3-31.3,13.8C-2085.4,676.9-2088.5,678.5-2095.2,687.3z"/>
<path class="st0" d="M-2103.8,689.3c2.6,3.4,2.1,10.8,1.9,14.8c-0.5,8.7,0.1,18.5-2.9,24c-4.8,8.6-8.3,14.6-16.5,16.5
	c-9.3,2.2-17.5-2-25.3-9.7c-4.8-4.8-6.3-6.9-7.1-14.7c-0.3-2.8,1.3-6.7,5.5-9.8c2.3-1.7,4.3-3.7,6-6c0,0-7-0.6-11.4-5.6
	c-5.5-6.3-7.9-20.2-8-24.7c-0.1-10.8,0.4-13.3,10.6-13.3c11.3,0,22.7,7.3,31.3,13.8C-2113.7,678.9-2110.5,680.5-2103.8,689.3z"/>
<path class="st0" d="M-2102.5,708.6c0,9.5-0.2,17.8,0.8,22c0.4,1.8,1.8,3.5,2.3,3.5s1.9-1.4,2.3-3.2c1-4.1,1-12.8,1-22.3
	c0-9.2,0.6-19-0.4-23.3c-0.5-2-2.2-1.7-2.8-1.7c-0.6,0-2.8-0.3-3.2,1.7C-2103.5,689.5-2102.5,699.3-2102.5,708.6z"/>
<path class="st0" d="M-2098.2,685.5L-2098.2,685.5c-0.5-0.3-0.6-1-0.3-1.5l19.1-27.5c0.3-0.5,1-0.6,1.5-0.3l0,0
	c0.5,0.3,0.6,1,0.3,1.5l-19.1,27.5C-2097,685.7-2097.7,685.8-2098.2,685.5z"/>
<path class="st0" d="M-2121.6,656.2L-2121.6,656.2c0.5-0.3,1.2-0.2,1.5,0.3l19.1,27.5c0.3,0.5,0.2,1.2-0.3,1.5l0,0
	c-0.5,0.3-1.2,0.2-1.5-0.3l-19.1-27.5C-2122.2,657.2-2122.1,656.5-2121.6,656.2z"/>
<path class="st0" d="M-2121.6,656.2L-2121.6,656.2c0.5-0.3,1.2-0.2,1.5,0.3l19.1,27.5c0.3,0.5,0.2,1.2-0.3,1.5l0,0
	c-0.5,0.3-1.2,0.2-1.5-0.3l-19.1-27.5C-2122.2,657.2-2122.1,656.5-2121.6,656.2z"/>
<path class="st3" d="M-2096.8,683.6v59.1c0,4.9-1.2,8.6-3.5,11.2c-2.3,2.6-5.8,3.8-10.4,3.9c-1.8,0-3.5-0.3-5.1-0.9l0.1-4.8
	c1.4,0.4,2.9,0.6,4.4,0.6c5.8,0,8.7-3.3,8.7-10v-59.1H-2096.8z M-2099.7,664.4c1.1-0.1,2.2,0.3,3,1.1c0.7,0.7,1.1,1.8,1.1,2.8
	c0,1-0.4,2-1.1,2.8c-0.8,0.8-1.9,1.2-3,1.1c-1.1,0.1-2.1-0.3-2.9-1.1c-0.7-0.7-1.1-1.7-1.1-2.8c0-1,0.4-2,1.1-2.8
	C-2101.9,664.7-2100.8,664.3-2099.7,664.4z"/>
<path class="st4" d="M-2093.7,708.2c-0.1-4.7,1-9.4,3-13.7c3.7-8,11.8-13,20.5-12.8c7,0,12.7,2.5,17.1,7.4
	c4.4,4.9,6.5,11.5,6.5,19.6v1.2c0.1,4.8-1,9.5-3,13.8c-1.8,3.9-4.7,7.2-8.3,9.5c-3.7,2.2-7.9,3.4-12.3,3.3c-7,0-12.7-2.5-17.1-7.4
	s-6.6-11.5-6.6-19.6L-2093.7,708.2z M-2087.8,709.9c0,6.3,1.6,11.5,4.9,15.5c5.8,7.1,16.3,8.1,23.4,2.3c0.8-0.7,1.6-1.5,2.3-2.3
	c3.3-4.1,4.9-9.4,4.9-16v-1.1c0-3.8-0.7-7.6-2.2-11.1c-1.3-3.1-3.5-5.8-6.3-7.8c-2.7-1.9-6-2.8-9.3-2.8c-5-0.1-9.7,2.2-12.8,6.1
	c-3.3,4.1-4.9,9.4-4.9,16V709.9z"/>
<path class="st1" d="M-2112.6,735.2c-0.7-2.4-1.1-4.9-1.1-7.4c-2.1,2.7-4.8,4.8-7.8,6.2c-3.2,1.4-6.6,2.2-10.1,2.2
	c-5.1,0-9.2-1.4-12.3-4.2c-3.1-2.7-4.8-6.6-4.7-10.7c-0.1-4.9,2.3-9.5,6.4-12.2c4.3-3,10.2-4.5,17.9-4.5h10.6v-6
	c0.2-3.3-1.1-6.6-3.5-8.9c-2.3-2.2-5.7-3.2-10.2-3.2c-3.6-0.1-7.2,1-10.1,3.1c-2.5,1.7-4,4.5-4,7.5l-5.8,0c0-4.2,1.9-7.8,5.8-10.9
	c4.1-3.2,9.2-4.8,14.4-4.6c5.9,0,10.5,1.5,13.9,4.4s5.2,7.1,5.2,12.3v25c0,5.1,0.5,8.9,1.6,11.5v0.6L-2112.6,735.2z M-2130.9,731
	c3.7,0.1,7.3-0.9,10.5-2.8c3-1.8,5.3-4.4,6.7-7.6V709h-10.4c-5.8,0.1-10.4,1.1-13.7,3.2c-3.1,1.7-5,5-4.9,8.5
	c-0.1,2.8,1.1,5.5,3.3,7.4C-2137.1,730.1-2134.1,731.2-2130.9,731z"/>
<image style="overflow:visible;opacity:0.8;enable-background:new    ;" width="98" height="102" xlink:href="favicon1.png"  transform="matrix(1.5246 0 0 1.5246 -2173.9016 230.7629)">
</image>
<image style="overflow:visible;enable-background:new    ;" width="227" height="300" xlink:href="favicon2.png"  transform="matrix(0.6177 0 0 0.6177 -2019.3438 207.5741)">
</image>
<path class="st4" d="M-1879.9,493.6c0,1-0.4,2-1.1,2.8c-0.8,0.7-1.8,1.1-2.9,1.1c-1,0-2-0.3-2.7-0.9c-0.8-0.8-1.3-1.9-1.3-3
	c0-1,0.3-1.9,0.9-2.6c1.6-1.6,4.1-1.7,5.8-0.3C-1880.4,491.5-1879.9,492.5-1879.9,493.6z"/>
<circle class="st1" cx="-1925.3" cy="809.1" r="3.9"/>
<path class="st0" d="M856.3,407.2c-32.9,43.3-27.2,139.5-24.1,190.6c6.7,112.7-1.7,239.2,37.9,309.8
	c62.4,111.2,106.6,188.6,212.2,213.1c119.8,27.8,226.3-25.4,326.5-125.5c62-62,80.9-89.5,91.1-190c3.7-36.4-17-86.2-70.8-126.5
	c-53.9-40.4-77.8-77.9-77.8-77.9s90.2-8,146.7-72.6c70.6-80.7,102.4-260.6,102.9-318.7c1.1-139.4-5.8-171.4-137.2-171.4
	c-145.6,0-293.2,94.7-403.4,177.5C983,273.6,942.1,294.2,856.3,407.2z"/>
<path class="st0" d="M744.7,433c32.9,43.3,27.2,139.5,24.1,190.6c-6.7,112.7,1.7,239.2-37.9,309.8
	c-62.4,111.2-106.6,188.6-212.3,213.1c-119.7,27.8-226.2-25.4-326.4-125.5c-62-62-80.9-89.5-91.1-190c-3.7-36.4,17-86.2,70.8-126.5
	c53.9-40.4,77.6-78.1,77.6-78.1s-90.2-8.1-146.7-72.6C32.3,473.2,0.5,293.3,0.1,235.1C-1,95.7,5.9,63.7,137.2,63.7
	c145.6,0,293.2,94.7,403.4,177.5C617.9,299.3,658.9,319.9,744.7,433z"/>
<path class="st0" d="M761.4,681.4c0,122.5-3.2,229.7,9.9,283.2c5.7,23.2,22.8,45.8,29.7,45.8s24-18.3,29.7-41.7
	c13.1-53.4,13-164.9,13-287.3c0-119,7.8-245.3-4.6-300.1c-6-26.3-28.6-21.4-36-21.4s-35.6-4.6-41.7,21.4
	C748.8,435.9,761.4,562,761.4,681.4z"/>
<path class="st0" d="M830.7,391.7L816,381.5c-2.3-1.6-2.9-4.7-1.3-7L1071.4,5.3c1.6-2.3,4.7-2.9,7-1.3l14.7,10.2
	c2.3,1.6,2.9,4.7,1.3,7L837.7,390.5C836.1,392.8,833,393.3,830.7,391.7z"/>
<path class="st0" d="M508.6,11.1l14.7-10.2c2.3-1.6,5.4-1,7,1.3L787.2,372c1.6,2.3,1,5.4-1.3,7l-14.7,10.2c-2.3,1.6-5.4,1-7-1.3
	L507.3,18.1C505.7,15.8,506.3,12.7,508.6,11.1z"/>
<path class="st0" d="M508.6,11.1l14.7-10.2c2.3-1.6,5.4-1,7,1.3L787.2,372c1.6,2.3,1,5.4-1.3,7l-14.7,10.2c-2.3,1.6-5.4,1-7-1.3
	L507.3,18.1C505.7,15.8,506.3,12.7,508.6,11.1z"/>
<path class="st1" d="M835.1,359.3v762.7c0,63-15.1,111-45.4,144.2s-74.7,49.8-133.5,49.8c-22.6,0-45-4-66.1-11.9l1.3-61.8
	c18.4,5.5,37.6,8.2,56.8,8.2c74.7,0,112.1-43.1,112.1-129.2V359.3H835.1z M798,111.8c27-1.8,50.4,18.6,52.2,45.5
	c0.1,1.7,0.1,3.4,0.1,5.2c0.3,13.3-4.7,26.1-13.9,35.6c-9.3,9.6-22.1,14.4-38.4,14.4c-14,0.8-27.6-4.4-37.5-14.4
	c-9-9.6-13.9-22.4-13.5-35.6c-0.4-13.3,4.5-26.2,13.5-36C770.2,116.4,783.9,111,798,111.8L798,111.8z"/>
<path class="st2" d="M875.2,677.4c0-65.5,12.7-124.5,38.1-177C961,397.2,1065.1,332,1178.8,334.2c90.7,0,164.2,31.8,220.4,95.4
	c56.3,63.6,84.4,147.9,84.4,252.9v15.8c0,66-12.7,125.3-38.1,177.9c-25.4,52.7-61.2,93.3-107.4,121.9c-46.3,28.5-99,42.8-158.1,42.8
	c-90.3,0-163.7-31.8-220.1-95.4c-56.5-63.6-84.7-147.9-84.7-252.9V677.4z M950.8,698.2c0,81.5,21.1,148.3,63.3,200.6
	c42.2,52.3,97.5,78.4,166,78.4c68,0,123.1-26.1,165.3-78.4c42.2-52.3,63.3-121.2,63.3-206.9v-14.5c0.6-49.2-9.3-97.9-29-143
	c-19.3-43.2-46.4-76.7-81.2-100.4c-35.3-23.9-77.1-36.3-119.7-35.6c-67.2,0-121.9,26.3-164.4,79s-63.6,121.6-63.6,206.9L950.8,698.2
	z"/>
<path class="st3" d="M632,1025.7c-7.6-21.5-12.4-53.2-14.5-95.1c-26.6,34.5-61.3,61.9-101.1,79.7c-40.8,18.6-85.2,28.1-130.1,27.8
	c-65.5,0-118.5-18.3-159-54.8c-40.6-36.5-60.8-82.7-60.7-138.5c0-66.4,27.6-118.9,82.8-157.5c55.2-38.7,132.1-58,230.8-57.9h136.6
	v-77c0-48.7-15-87-45-114.9c-30-27.9-73.8-41.8-131.3-41.7c-52.5,0-96,13.4-130.4,40.3c-34.4,26.9-51.6,59.2-51.6,97l-75.6-0.6
	c0-54.2,25.2-101.1,75.6-140.8c50.4-39.7,112.3-59.7,185.8-59.9c76,0,135.9,19,179.8,57c43.9,38,66.5,91,67.7,159v322.5
	c0,65.9,6.9,115.2,20.8,148v7.6H632z M395.2,971.5c47.6,0.8,94.4-11.9,135.1-36.6c38.3-22.8,68.5-56.9,86.6-97.6V687.5H482.1
	c-75.2,0.8-133.9,14.6-176.4,41.2c-42.4,26.7-63.6,63.3-63.6,109.9c-0.8,36.5,14.8,71.4,42.5,95.1
	C313,958.9,349.8,971.5,395.2,971.5z"/>
<path class="st4" d="M850.2,162.2c0.4,13.4-4.6,26.4-13.9,36c-10.3,9.4-23.8,14.6-37.8,14.4c-12.8,0.3-25.2-3.8-35.3-11.7
	c-10.9-9.9-16.8-24-16.3-38.7c-0.1-12.5,4.3-24.6,12.3-34.2c20.5-20.1,52.9-21.6,75.2-3.4C844.4,134.4,850.2,148,850.2,162.2z"/>
</svg>
