<svg id="Layer_1" data-name="Layer 1" xmlns="http://www.w3.org/2000/svg" xmlns:xlink="http://www.w3.org/1999/xlink" width="345.5" height="284" viewBox="0 0 345.5 284"><defs><style>.cls-1{fill:url(#linear-gradient);}.cls-2{fill:url(#linear-gradient-2);}.cls-3{fill:#c2cad2;}.cls-4{fill:#dccfb8;}.cls-5{fill:#1d1d1b;}</style><linearGradient id="linear-gradient" x1="228.79" y1="43.71" x2="323.93" y2="208.51" gradientUnits="userSpaceOnUse"><stop offset="0" stop-color="#c2cad2"/><stop offset="1" stop-color="#cdaea2"/></linearGradient><linearGradient id="linear-gradient-2" x1="116.7" y1="49.26" x2="21.55" y2="214.06" xlink:href="#linear-gradient"/></defs><path class="cls-1" d="M184.79,87.88c-7.11,9.35-5.86,30.1-5.21,41.14,1.44,24.32-.36,51.63,8.17,66.85,13.47,24,23,40.71,45.8,46,25.85,6,48.83-5.48,70.46-27.08,13.39-13.37,17.45-19.31,19.66-41,.8-7.85-3.66-18.6-15.29-27.31s-16.78-16.82-16.78-16.82,19.47-1.73,31.66-15.67c15.24-17.41,22.1-56.24,22.2-68.77.23-30.09-1.25-37-29.6-37-31.43,0-63.28,20.44-87.06,38.31C212.15,59,203.32,63.49,184.79,87.88Z" transform="translate(0.02 0)"/><path class="cls-2" d="M160.72,93.44c7.11,9.35,5.86,30.11,5.21,41.14-1.44,24.32.36,51.63-8.17,66.86-13.47,24-23,40.7-45.81,46-25.84,6-48.82-5.48-70.45-27.08C28.11,207,24.05,201,21.84,179.36c-.8-7.85,3.66-18.6,15.29-27.31S53.88,135.2,53.88,135.2s-19.47-1.74-31.66-15.67C7,102.12.12,63.29,0,50.75c-.23-30.09,1.25-37,29.6-37,31.43,0,63.27,20.44,87.06,38.31C133.36,64.6,142.19,69.05,160.72,93.44Z" transform="translate(0.02 0)"/><path class="cls-3" d="M164.32,147.06c0,26.43-.69,49.58,2.13,61.11,1.23,5,4.91,9.88,6.4,9.88s5.18-3.94,6.42-9c2.82-11.53,2.8-35.58,2.8-62,0-25.69,1.68-52.94-1-64.77-1.29-5.67-6.18-4.61-7.77-4.61s-7.69-1-9,4.61C161.61,94.08,164.32,121.28,164.32,147.06Z" transform="translate(0.02 0)"/><rect class="cls-3" x="156.38" y="39.68" width="99.23" height="6.03" rx="1.09" transform="translate(53.39 187.48) rotate(-55.2)"/><rect class="cls-4" x="136.66" y="-7.58" width="6.04" height="99.36" rx="1.09" transform="translate(0.96 87.2) rotate(-34.78)"/><rect class="cls-3" x="136.66" y="-7.58" width="6.04" height="99.36" rx="1.09" transform="translate(0.96 87.2) rotate(-34.78)"/><path class="cls-5" d="M180.22,77.54V242.13q0,20.37-9.79,31.12T141.62,284a40.91,40.91,0,0,1-14.27-2.56l.27-13.34a43.13,43.13,0,0,0,12.26,1.77q24.19,0,24.19-27.89V77.54Zm-8-53.41a10.56,10.56,0,0,1,11.26,9.81V34a10.27,10.27,0,0,1,0,1.11,10.69,10.69,0,0,1-3,7.69c-2,2.08-4.76,3.11-8.29,3.11a10.54,10.54,0,0,1-8.09-3.11,10.8,10.8,0,0,1-2.92-7.69,11,11,0,0,1,2.92-7.77,10.41,10.41,0,0,1,8.08-3.17Z" transform="translate(0.02 0)"/><path class="cls-5" d="M188.88,146.2q0-21.21,8.23-38.2a61.79,61.79,0,0,1,57.28-35.88q29.36,0,47.57,20.59t18.21,54.57v3.4q0,21.34-8.22,38.4t-23.17,26.3q-15,9.24-34.11,9.24-29.23,0-47.51-20.59t-18.28-54.57Zm16.31,4.48q0,26.37,13.66,43.29t35.82,16.92q22,0,35.67-16.92T304,149.32V146.2a74.81,74.81,0,0,0-6.25-30.86q-6.25-14-17.53-21.67A44.89,44.89,0,0,0,254.39,86q-21.73,0-35.47,17t-13.73,44.65Z" transform="translate(0.02 0)"/><path class="cls-5" d="M136.39,221.36q-2.46-7-3.13-20.53A56.78,56.78,0,0,1,111.45,218a66.92,66.92,0,0,1-28.07,6q-21.19,0-34.32-11.82T36,182.31q0-21.48,17.87-34t49.81-12.5h29.49V119.2q0-15.76-9.71-24.8t-28.34-9q-17,0-28.14,8.7T55.79,115l-16.31-.14q0-17.53,16.31-30.38t40.09-12.9q24.6,0,38.81,12.3T149.3,118.2v69.59q0,21.33,4.48,31.93v1.64ZM85.28,209.67a54.65,54.65,0,0,0,29.16-7.89,46.3,46.3,0,0,0,18.68-21.06V148.37H104q-24.33.27-38.06,8.9T52.26,181a26.23,26.23,0,0,0,9.17,20.52Q70.61,209.66,85.28,209.67Z" transform="translate(0.02 0)"/></svg>