<svg id="Layer_1" data-name="Layer 1" xmlns="http://www.w3.org/2000/svg" width="1600.8" height="1315.9" viewBox="0 0 1600.8 1315.9"><defs><style>.cls-1{fill:#dccfb9;}.cls-2{fill:#dccfb8;}.cls-3{fill:#d9adc8;}.cls-4{fill:#a6c9e5;}.cls-5{fill:#ce748d;}</style></defs><path class="cls-1" d="M856.3,407.2c-32.9,43.3-27.2,139.5-24.1,190.6,6.7,112.7-1.7,239.2,37.9,309.8,62.4,111.2,106.6,188.6,212.2,213.1,119.8,27.8,226.3-25.4,326.5-125.5,62-62,80.9-89.5,91.1-190,3.7-36.4-17-86.2-70.8-126.5s-77.8-77.9-77.8-77.9,90.2-8,146.7-72.6c70.6-80.7,102.4-260.6,102.9-318.7,1.1-139.4-5.8-171.4-137.2-171.4-145.6,0-293.2,94.7-403.4,177.5C983,273.6,942.1,294.2,856.3,407.2Z"/><path class="cls-1" d="M744.7,433c32.9,43.3,27.2,139.5,24.1,190.6-6.7,112.7,1.7,239.2-37.9,309.8-62.4,111.2-106.6,188.6-212.3,213.1-119.7,27.8-226.2-25.4-326.4-125.5-62-62-80.9-89.5-91.1-190-3.7-36.4,17-86.2,70.8-126.5s77.6-78.1,77.6-78.1-90.2-8.1-146.7-72.6C32.3,473.2.5,293.3.1,235.1-1,95.7,5.9,63.7,137.2,63.7c145.6,0,293.2,94.7,403.4,177.5C617.9,299.3,658.9,319.9,744.7,433Z"/><path class="cls-2" d="M761.4,681.4c0,122.5-3.2,229.7,9.9,283.2,5.7,23.2,22.8,45.8,29.7,45.8s24-18.3,29.7-41.7c13.1-53.4,13-164.9,13-287.3,0-119,7.8-245.3-4.6-300.1-6-26.3-28.6-21.4-36-21.4s-35.6-4.6-41.7,21.4C748.8,435.9,761.4,562,761.4,681.4Z"/><path class="cls-1" d="M830.7,391.7,816,381.5a5,5,0,0,1-1.3-7L1071.4,5.3a5,5,0,0,1,7-1.3l14.7,10.2a5,5,0,0,1,1.3,7L837.7,390.5A5,5,0,0,1,830.7,391.7Z"/><path class="cls-2" d="M508.6,11.1,523.3.9a5,5,0,0,1,7,1.3L787.2,372a5,5,0,0,1-1.3,7l-14.7,10.2a5,5,0,0,1-7-1.3L507.3,18.1A5,5,0,0,1,508.6,11.1Z"/><path class="cls-1" d="M508.6,11.1,523.3.9a5,5,0,0,1,7,1.3L787.2,372a5,5,0,0,1-1.3,7l-14.7,10.2a5,5,0,0,1-7-1.3L507.3,18.1A5,5,0,0,1,508.6,11.1Z"/><path class="cls-3" d="M835.1,359.3V1122q0,94.5-45.4,144.2T656.2,1316a188.51,188.51,0,0,1-66.1-11.9l1.3-61.8a198.57,198.57,0,0,0,56.8,8.2q112,0,112.1-129.2v-762ZM798,111.8a49,49,0,0,1,52.2,45.5c.1,1.7.1,3.4.1,5.2a49.5,49.5,0,0,1-13.9,35.6q-13.95,14.4-38.4,14.4a48.73,48.73,0,0,1-37.5-14.4A49.89,49.89,0,0,1,747,162.5a51,51,0,0,1,13.5-36A48.21,48.21,0,0,1,798,111.8Z"/><path class="cls-4" d="M875.2,677.4q0-98.25,38.1-177a286.3,286.3,0,0,1,265.5-166.2q136,0,220.4,95.4t84.4,252.9v15.8q0,99-38.1,177.9T1338.1,998.1q-69.45,42.75-158.1,42.8-135.45,0-220.1-95.4T875.2,692.6V677.4Zm75.6,20.8q0,122.25,63.3,200.6t166,78.4q102,0,165.3-78.4t63.3-206.9V677.4a346.55,346.55,0,0,0-29-143q-29-64.8-81.2-100.4a207.4,207.4,0,0,0-119.7-35.6q-100.8,0-164.4,79T950.8,684.3Z"/><path class="cls-5" d="M632,1025.7q-11.4-32.25-14.5-95.1a263.51,263.51,0,0,1-101.1,79.7,308.68,308.68,0,0,1-130.1,27.8q-98.25,0-159-54.8-60.9-54.75-60.7-138.5,0-99.6,82.8-157.5t230.8-57.9H616.8v-77q0-73-45-114.9T440.5,395.8q-78.75,0-130.4,40.3t-51.6,97l-75.6-.6q0-81.3,75.6-140.8t185.8-59.9q114,0,179.8,57t67.7,159V870.3q0,98.85,20.8,148v7.6H632ZM395.2,971.5a252.16,252.16,0,0,0,135.1-36.6,215.33,215.33,0,0,0,86.6-97.6V687.5H482.1q-112.8,1.2-176.4,41.2T242.1,838.6a121.62,121.62,0,0,0,42.5,95.1Q327.2,971.5,395.2,971.5Z"/></svg>